<svg width="40" height="40" viewBox="0 0 40 40" fill="none" xmlns="http://www.w3.org/2000/svg">
<rect width="40" height="40" rx="20" fill="#FF3E79"/>
<path fill-rule="evenodd" clip-rule="evenodd" d="M12.0001 11.0001C12.0001 10.4478 12.4478 10.0001 13.0001 10.0001H27.0001C27.5523 10.0001 28.0001 10.4478 28.0001 11.0001V28.5001C27.1717 28.5001 26.5001 29.1716 26.5001 30H25.5001C25.5 29.1716 24.8284 28.5001 24.0001 28.5001C23.1717 28.5001 22.5001 29.1716 22.5001 30H21.5001C21.5 29.1716 20.8284 28.5001 20.0001 28.5001C19.1717 28.5001 18.5001 29.1716 18.5001 30H17.5001C17.5 29.1716 16.8284 28.5001 16.0001 28.5001C15.1717 28.5001 14.5001 29.1716 14.5001 30H13.5001C13.5 29.1716 12.8284 28.5001 12.0001 28.5001L12.0001 11.0001ZM21.4164 21.7885C20.5537 22.3445 19.4704 22.5937 18.3297 22.3828C16.5275 22.0473 15.0896 20.5328 14.8596 18.7115C14.4953 15.8262 16.9493 13.4202 19.8539 13.8803C21.6561 14.1679 23.1035 15.6441 23.4007 17.4366C23.5828 18.5486 23.324 19.5742 22.7872 20.4274L24.8961 22.5266C25.27 22.9005 25.27 23.514 24.8961 23.8878C24.5127 24.2712 23.8992 24.2712 23.5253 23.8974L21.4164 21.7885ZM16.7059 18.0589C16.7059 16.7601 17.7601 15.706 19.0589 15.706C20.3577 15.706 21.4118 16.7601 21.4118 18.0589C21.4118 19.3578 20.3577 20.4119 19.0589 20.4119C17.7601 20.4119 16.7059 19.3578 16.7059 18.0589Z" fill="white"/>
</svg>
